<mxfile host="app.diagrams.net" modified="2023-03-31T10:37:42.945Z" agent="Mozilla/5.0 (Macintosh; Intel Mac OS X 10_15_7) AppleWebKit/605.1.15 (KHTML, like Gecko) Version/16.2 Safari/605.1.15" version="21.1.2" etag="SL5DpZPW19LFUT5UbMGm" type="github">
  <diagram name="페이지-1" id="jzdu_QFizAeoyR6xsL4F">
    <mxGraphModel>
      <root>
        <mxCell id="0" />
        <mxCell id="1" parent="0" />
      </root>
    </mxGraphModel>
  </diagram>
</mxfile>
